# xmcd CD database file
#
# Track frame offsets:
#	150
#	54703
#	69120
#	120857
#	154187
#	187819
#	216998
#	275518
#	301579
#
# Disc length: 4381 seconds
#
# Revision: 0
# Processed by: cddbd v1.5.1PL2 Copyright (c) Steve Scherf et al.
# Submitted via: CDex 1.51
#
DISCID=70111b09
DTITLE=Dietrich von Oppeln - Bronikowski - Die Gesänge Lemurias (Songs of Lemuria)
DYEAR=1998
DGENRE=New Age
TTITLE0=Pazifik Ekstase (Pacific Ecstasy)
TTITLE1=Jenseits der Zeiten (Beyond Times)
TTITLE2=Lemuria, mein Land (Lemuria, my Land)
TTITLE3=Die Kristallorgel (The Crystal Organ)
TTITLE4=Tanz der Mücken (Dance of the Flies)
TTITLE5=Tramins Liebe (The Love of Tramin)
TTITLE6=Ein Tag in Lemuria (A Lemurian Day)
TTITLE7=Die Botschaft des Träumers (The Dreamers Message)
TTITLE8=Morjuk-Shamans Leidenschaft (The Passion of Morjuk-Shaman)
EXTD=YEAR: 1998
EXTT0=
EXTT1=
EXTT2=
EXTT3=
EXTT4=
EXTT5=
EXTT6=
EXTT7=
EXTT8=
PLAYORDER=
